<?xml version="1.0" encoding="UTF-8"?>
<svg version="1.1" xmlns="http://www.w3.org/2000/svg" width="200" height="200">
<path d="M0 0 C2.56175249 1.97246757 4.9791602 4.0327673 7.3828125 6.1953125 C7.86105469 6.62440918 8.33929688 7.05350586 8.83203125 7.49560547 C25.70326876 22.85428666 38.27411225 44.98337106 39.54394531 68.1328125 C39.92594954 95.99246952 35.75417293 120.6641949 16.3828125 142.1953125 C15.95371582 142.67355469 15.52461914 143.15179688 15.08251953 143.64453125 C-0.27616166 160.51576876 -22.40524606 173.08661225 -45.5546875 174.35644531 C-73.41434452 174.73844954 -98.0860699 170.56667293 -119.6171875 151.1953125 C-120.09542969 150.76621582 -120.57367188 150.33711914 -121.06640625 149.89501953 C-137.93764376 134.53633834 -150.50848725 112.40725394 -151.77832031 89.2578125 C-152.16032454 61.39815548 -147.98854793 36.7264301 -128.6171875 15.1953125 C-128.18809082 14.71707031 -127.75899414 14.23882812 -127.31689453 13.74609375 C-94.85821944 -21.90918224 -39.57292522 -27.28759918 0 0 Z M-109.5546875 41.9453125 C-119.10676532 54.05390749 -120.87288991 68.36827437 -121.0546875 83.2578125 C-121.07700439 84.34586182 -121.09932129 85.43391113 -121.12231445 86.55493164 C-121.09147004 97.61140326 -118.49905343 108.09601579 -110.6171875 116.1953125 C-100.52178378 125.22154923 -89.74566415 126.98265874 -76.55761719 126.36132812 C-67.979078 125.62738164 -60.73594505 120.61921502 -53.45800781 116.42431641 C-42.3484166 110.09603472 -32.00555458 108.33581282 -19.52685547 111.73657227 C-18.83479004 111.92920654 -18.14272461 112.12184082 -17.4296875 112.3203125 C-12.16154832 113.76852359 -7.658491 114.86925846 -2.3203125 113.16796875 C1.6116165 110.92244049 3.01461785 107.29989645 4.3828125 103.1953125 C5.63233253 86.04672727 5.50776676 70.12025525 -5.6171875 56.1953125 C-6.55498047 54.97908203 -6.55498047 54.97908203 -7.51171875 53.73828125 C-18.91904637 39.96059983 -35.39438384 32.76530542 -52.6171875 29.1953125 C-53.50535156 29.0096875 -54.39351563 28.8240625 -55.30859375 28.6328125 C-74.29250714 26.12254296 -95.59229498 27.25916746 -109.5546875 41.9453125 Z " fill="#FC3D2B" transform="translate(156.6171875,22.8046875)"/>
<path d="M0 0 C3.38955185 1.03184393 6.73283623 1.23125251 10.2578125 1.41796875 C12.38671875 1.7265625 12.38671875 1.7265625 15.38671875 3.7265625 C15.69921875 6.2265625 15.69921875 6.2265625 15.38671875 8.7265625 C12.76359467 11.34968658 11.54054404 11.02493689 7.88671875 11.0390625 C3.75519081 10.98502349 0.34822852 10.57745094 -3.55078125 9.2265625 C-12.28407432 6.30146915 -21.16996837 6.8027618 -29.6640625 10.25 C-33.29839476 12.06957297 -36.72100145 14.15278601 -40.17578125 16.2890625 C-52.00326992 23.57181768 -63.44552741 25.5975183 -77.1796875 23.0703125 C-84.87478989 20.96256308 -91.91013991 17.42970384 -97.61328125 11.7265625 C-97.80078125 9.2890625 -97.80078125 9.2890625 -97.61328125 6.7265625 C-96.95328125 6.0665625 -96.29328125 5.4065625 -95.61328125 4.7265625 C-90.59448716 4.94962001 -88.41289633 6.65068363 -84.61328125 9.7265625 C-74.80603555 14.22728247 -63.64944328 15.76471598 -53.23828125 12.2890625 C-48.44530597 10.32089835 -44.03121507 7.74524978 -39.55078125 5.1640625 C-26.78522141 -2.18014034 -14.41836719 -5.10005054 0 0 Z " fill="#FF3E2C" transform="translate(139.61328125,112.2734375)"/>
<path d="M0 0 C3.3089936 0.32612256 4.21788895 1.17025432 6.55183411 3.48942566 C7.63238823 4.54633858 7.63238823 4.54633858 8.73477173 5.62460327 C9.87724617 6.78225945 9.87724617 6.78225945 11.0428009 7.96330261 C11.83478378 8.75050186 12.62676666 9.53770111 13.44274902 10.34875488 C15.11384823 12.01645162 16.77864966 13.69047928 18.43757629 15.37028503 C20.98235644 17.94181906 23.5526649 20.48563035 26.12678528 23.02775574 C27.74622944 24.65050393 29.3641219 26.27480246 30.9803009 27.90080261 C31.75207169 28.66245224 32.52384247 29.42410187 33.31900024 30.20883179 C34.02360886 30.9292012 34.72821747 31.64957062 35.45417786 32.39176941 C36.07863297 33.02020248 36.70308807 33.64863556 37.34646606 34.29611206 C39.04835962 36.80859809 39.08749646 38.28720468 38.67951965 41.26408386 C38.01951965 41.92408386 37.35951965 42.58408386 36.67951965 43.26408386 C32.64009907 42.98203395 30.63046722 41.7229162 27.79133606 38.92521667 C27.06773895 38.22068359 26.34414185 37.51615051 25.59861755 36.79026794 C24.83383087 36.02365845 24.06904419 35.25704895 23.28108215 34.46720886 C22.4867276 33.68142456 21.69237305 32.89564026 20.87394714 32.08604431 C19.1997154 30.42328993 17.53068905 28.75528013 15.86653137 27.08244324 C13.3104296 24.52000845 10.72881743 21.98538161 8.1443634 19.45158386 C6.52164984 17.83341493 4.90050099 16.21367506 3.28108215 14.59220886 C2.50415009 13.83369629 1.72721802 13.07518372 0.92674255 12.29368591 C0.22205841 11.57654419 -0.48262573 10.85940247 -1.20866394 10.12052917 C-1.83533966 9.4951123 -2.46201538 8.86969543 -3.10768127 8.22532654 C-4.32048035 6.26408386 -4.32048035 6.26408386 -4.07746887 3.58555603 C-3.02037202 0.34373552 -3.02037202 0.34373552 0 0 Z " fill="#FF3E2C" transform="translate(68.32048034667969,61.73591613769531)"/>
<path d="M0 0 C4.94722421 2.57715035 8.5843278 6.21060093 12.5234375 10.08203125 C13.22900787 10.7738298 13.93457825 11.46562836 14.66152954 12.1783905 C16.1452279 13.63888134 17.62599742 15.1023528 19.10400391 16.56860352 C21.37278014 18.81030663 23.66438016 21.02689599 25.95703125 23.24414062 C27.39731204 24.66777639 28.83616486 26.09285858 30.2734375 27.51953125 C30.96287445 28.17911331 31.6523114 28.83869537 32.36264038 29.51826477 C34.11286843 31.28510025 35.66487703 32.90158013 37 35 C36.92041016 38.4675293 36.92041016 38.4675293 36 41 C33.73727417 41.68875122 33.73727417 41.68875122 31 42 C29.06326294 40.82516479 29.06326294 40.82516479 27.20361328 38.97998047 C26.50003693 38.29531708 25.79646057 37.61065369 25.07156372 36.90524292 C24.32865082 36.15018463 23.58573792 35.39512634 22.8203125 34.6171875 C22.04815399 33.85076935 21.27599548 33.0843512 20.48043823 32.29470825 C18.85098742 30.66934267 17.22909849 29.03636632 15.61425781 27.39648438 C13.13447318 24.88459583 10.62436316 22.40627138 8.109375 19.9296875 C6.53192673 18.34827443 4.95634068 16.76500117 3.3828125 15.1796875 C2.25022507 14.06531815 2.25022507 14.06531815 1.09475708 12.92843628 C0.41009369 12.22485992 -0.2745697 11.52128357 -0.97998047 10.79638672 C-1.89334671 9.87586014 -1.89334671 9.87586014 -2.82516479 8.93673706 C-4 7 -4 7 -3.87625122 4.38772583 C-3 2 -3 2 0 0 Z " fill="#FF3E2C" transform="translate(107,61)"/>
<path d="M0 0 C5.06325724 0.05520943 7.82007901 3.22301614 11.17578125 6.609375 C12.0308149 7.45511078 12.0308149 7.45511078 12.90312195 8.31793213 C14.10228209 9.51000371 15.29634895 10.70721802 16.4855957 11.90917969 C18.3081757 13.74564276 20.15348659 15.55682607 22.00195312 17.3671875 C23.1655149 18.52979822 24.32767378 19.69381505 25.48828125 20.859375 C26.04131424 21.39914978 26.59434723 21.93892456 27.16413879 22.49505615 C29.5630568 24.9535813 30.92976568 26.41204265 31.34448242 29.88378906 C31.17396362 30.93131348 31.17396362 30.93131348 31 32 C29.35 32.66 27.7 33.32 26 34 C19.58580729 28.54067827 13.50262841 22.78165615 7.5 16.875 C6.5821875 15.99457031 5.664375 15.11414063 4.71875 14.20703125 C3.8525 13.35238281 2.98625 12.49773437 2.09375 11.6171875 C0.91329102 10.46645752 0.91329102 10.46645752 -0.29101562 9.29248047 C-2 7 -2 7 -2.38085938 4.33642578 C-2 2 -2 2 0 0 Z " fill="#FF3E2C" transform="translate(50,84)"/>
</svg>
